<svg version="1.2" xmlns="http://www.w3.org/2000/svg" viewBox="0 0 600 600" width="600" height="600">
	<defs>
		<clipPath clipPathUnits="userSpaceOnUse" id="cp1">
			<path d="m185 156v100q0 60 50 60h20q50 0 50-60v-100"/>
		</clipPath>
		<linearGradient id="g1" x2="1" gradientUnits="userSpaceOnUse" gradientTransform="matrix(120,19.987,-3.329,19.987,185,206.007)">
			<stop offset="0" stop-color="#8b7ba8" stop-opacity=".4"/>
			<stop offset=".5" stop-color="#6b8cae" stop-opacity=".35"/>
			<stop offset="1" stop-color="#9ba5b0" stop-opacity=".3"/>
		</linearGradient>
		<linearGradient id="g2" x2="1" gradientUnits="userSpaceOnUse" gradientTransform="matrix(120,19.987,-3.329,19.987,185,246.007)">
			<stop offset="0" stop-color="#8b7ba8" stop-opacity=".4"/>
			<stop offset=".5" stop-color="#6b8cae" stop-opacity=".35"/>
			<stop offset="1" stop-color="#9ba5b0" stop-opacity=".3"/>
		</linearGradient>
	</defs>
	<style>
		tspan { white-space:pre } 
		.s0 { fill: #faf8f3 } 
		.s1 { fill: none;stroke: #2b2b2b;stroke-linecap: round;stroke-linejoin: round;stroke-width: 8 } 
		.s2 { fill: none;stroke: #2b2b2b;stroke-linecap: round;stroke-width: 8 } 
		.s3 { opacity: .6;fill: none;stroke: url(#g1);stroke-width: 24 } 
		.s4 { opacity: .4;fill: none;stroke: url(#g2);stroke-width: 20 } 
		.t5 { font-size: 16px;fill: #6b6b6b;font-family: "system" } 
	</style>
	<path fill-rule="evenodd" class="s0" d="m600 0v600h-600v-600z"/>
	<g id="logo">
		<path class="s1" d="m65 316l40-160 40 160m-60-70h40"/>
		<g id="u-container">
			<path class="s2" d="m185 156v100q0 60 50 60h20q50 0 50-60v-100"/>
			<g id="Clip-Path" clip-path="url(#cp1)">
				<g>
					<path class="s3" d="m185 216q30-20 60 0 30 20 60 0"/>
					<path class="s4" d="m185 256q30-20 60 0 30 20 60 0"/>
				</g>
			</g>
		</g>
		<path class="s1" d="m345 316v-160h40q30 0 30 30 0 30-30 30h-40m35 0l35 100"/>
		<path class="s1" d="m455 316l40-160 40 160m-60-70h40"/>
	</g>
	<text id="
    APPLIED INTELLIGENCE
  " style="transform: matrix(2.527,0,0,5.308,277.731,352.846)" >
		<tspan x="-103.3" y="19.2" class="t5">    APPLIED INTELLIGENCE
</tspan>
		<tspan x="-5.1" y="38.4" class="t5">  
</tspan>
	</text>
</svg>