<svg version="1.2" xmlns="http://www.w3.org/2000/svg" viewBox="0 0 500 500" width="500" height="500">
	<defs>
		<clipPath clipPathUnits="userSpaceOnUse" id="cp1">
			<path d="m135 170v100q0 60 50 60h20q50 0 50-60v-100"/>
		</clipPath>
		<radialGradient id="g1" cx="0" cy="0" r="1" gradientUnits="userSpaceOnUse" gradientTransform="matrix(NaN,NaN,NaN,NaN,NaN,NaN)">
			<stop offset="0" stop-color="#8b7ba8" stop-opacity=".5"/>
			<stop offset="1" stop-color="#9ba5b0" stop-opacity=".1"/>
		</radialGradient>
		<radialGradient id="g2" cx="0" cy="0" r="1" gradientUnits="userSpaceOnUse" gradientTransform="matrix(NaN,NaN,NaN,NaN,NaN,NaN)">
			<stop offset="0" stop-color="#8b7ba8" stop-opacity=".5"/>
			<stop offset="1" stop-color="#9ba5b0" stop-opacity=".1"/>
		</radialGradient>
	</defs>
	<style>
		tspan { white-space:pre } 
		.s0 { fill: none;stroke: #2b2b2b;stroke-linecap: round;stroke-linejoin: round;stroke-width: 8 } 
		.s1 { fill: none;stroke: #2b2b2b;stroke-linecap: round;stroke-width: 8 } 
		.s2 { fill: url(#g1) } 
		.s3 { opacity: .5;fill: url(#g2) } 
	</style>
	<path class="s0" d="m15 330l40-160 40 160m-60-70h40"/>
	<g>
		<path class="s1" d="m135 170v100q0 60 50 60h20q50 0 50-60v-100"/>
		<g id="Clip-Path" clip-path="url(#cp1)">
			<g>
				<path fill-rule="evenodd" class="s2" d="m195 310c-33.18 0-60-26.82-60-60 0-33.18 26.82-60 60-60 33.18 0 60 26.82 60 60 0 33.18-26.82 60-60 60z"/>
				<path fill-rule="evenodd" class="s3" d="m195 290c-22.12 0-40-17.88-40-40 0-22.12 17.88-40 40-40 22.12 0 40 17.88 40 40 0 22.12-17.88 40-40 40z"/>
			</g>
		</g>
	</g>
	<path class="s0" d="m295 330v-160h40q30 0 30 30 0 30-30 30h-40m35 0l35 100"/>
	<path class="s0" d="m405 330l40-160 40 160m-60-70h40"/>
</svg>