<svg version="1.2" xmlns="http://www.w3.org/2000/svg" viewBox="0 0 478 168" width="478" height="168"><defs><clipPath clipPathUnits="userSpaceOnUse" id="cp1"><path d="m124 4v100q0 60 50 60h20q50 0 50-60v-100"/></clipPath><linearGradient id="P" gradientUnits="userSpaceOnUse"/><radialGradient id="g1" cx="0" cy="0" r="1" href="#P" gradientTransform="matrix(NaN,NaN,NaN,NaN,NaN,NaN)"><stop stop-color="#8b7ba8" stop-opacity=".5"/><stop offset="1" stop-color="#9ba5b0" stop-opacity=".1"/></radialGradient><radialGradient id="g2" cx="0" cy="0" r="1" href="#P" gradientTransform="matrix(NaN,NaN,NaN,NaN,NaN,NaN)"><stop stop-color="#8b7ba8" stop-opacity=".5"/><stop offset="1" stop-color="#9ba5b0" stop-opacity=".1"/></radialGradient></defs><style>tspan{white-space:pre}.a{fill:none;stroke:#2b2b2b;stroke-linecap:round;stroke-linejoin:round;stroke-width:8}.b{fill:none;stroke:#2b2b2b;stroke-linecap:round;stroke-width:8}.c{fill:url(#g1)}.d{opacity:.5;fill:url(#g2)}</style><path fill-rule="evenodd" class="a" d="m4 164l40-160 40 160m-60-70h40"/><path fill-rule="evenodd" class="b" d="m124 4v100q0 60 50 60h20q50 0 50-60v-100"/><g clip-path="url(#cp1)"><path fill-rule="evenodd" class="c" d="m184 144c-33.2 0-60-26.8-60-60 0-33.2 26.8-60 60-60 33.2 0 60 26.8 60 60 0 33.2-26.8 60-60 60z"/><path fill-rule="evenodd" class="d" d="m184 124c-22.1 0-40-17.9-40-40 0-22.1 17.9-40 40-40 22.1 0 40 17.9 40 40 0 22.1-17.9 40-40 40z"/></g><path fill-rule="evenodd" class="a" d="m284 164v-160h40q30 0 30 30 0 30-30 30h-40m35 0l35 100"/><path fill-rule="evenodd" class="a" d="m394 164l40-160 40 160m-60-70h40"/></svg>