<svg width="57" height="51" viewBox="0 0 57 51" fill="none" xmlns="http://www.w3.org/2000/svg">
<path d="M8.99022 0.333374H47.2255C49.5657 0.333374 51.81 1.26299 53.4647 2.91773C55.1194 4.57246 56.049 6.81676 56.049 9.1569V29.7451C56.049 32.0853 55.1194 34.3296 53.4647 35.9843C51.81 37.639 49.5657 38.5687 47.2255 38.5687H33.9667L35.4608 47.3922H38.402V50.3334H17.8137V47.3922H20.7549L22.249 38.5687H8.99022C6.65007 38.5687 4.40577 37.639 2.75104 35.9843C1.09631 34.3296 0.166687 32.0853 0.166687 29.7451V9.1569C0.166687 6.81676 1.09631 4.57246 2.75104 2.91773C4.40577 1.26299 6.65007 0.333374 8.99022 0.333374V0.333374ZM25.1902 38.5687L23.6961 47.3922H32.5196L31.0255 38.5687H25.1902V38.5687ZM8.99022 3.27455C7.43012 3.27455 5.93392 3.8943 4.83076 4.99745C3.72761 6.10061 3.10786 7.59681 3.10786 9.1569V29.7451C3.10786 31.3052 3.72761 32.8014 4.83076 33.9046C5.93392 35.0077 7.43012 35.6275 8.99022 35.6275H47.2255C48.7856 35.6275 50.2818 35.0077 51.385 33.9046C52.4881 32.8014 53.1079 31.3052 53.1079 29.7451V9.1569C53.1079 7.59681 52.4881 6.10061 51.385 4.99745C50.2818 3.8943 48.7856 3.27455 47.2255 3.27455H8.99022Z" fill="black"/>
</svg>
