<svg width="51" height="51" viewBox="0 0 51 51" fill="none" xmlns="http://www.w3.org/2000/svg">
<path d="M2.79827 46.5289L12.2351 37.0921H42.2719C43.6678 37.0921 45.0065 36.5376 45.9936 35.5506C46.9806 34.5635 47.5351 33.2248 47.5351 31.8289V8.14474C47.5351 6.74886 46.9806 5.41016 45.9936 4.42312C45.0065 3.43609 43.6678 2.88158 42.2719 2.88158H8.06142C6.66555 2.88158 5.32684 3.43609 4.33981 4.42312C3.35278 5.41016 2.79827 6.74886 2.79827 8.14474V46.5289ZM2.79827 50.25H0.166687V8.14474C0.166687 6.05092 0.998452 4.04287 2.479 2.56232C3.95955 1.08176 5.96761 0.25 8.06142 0.25H42.2719C44.3658 0.25 46.3738 1.08176 47.8544 2.56232C49.3349 4.04287 50.1667 6.05092 50.1667 8.14474V31.8289C50.1667 33.9228 49.3349 35.9308 47.8544 37.4114C46.3738 38.8919 44.3658 39.7237 42.2719 39.7237H13.3246L2.79827 50.25ZM39.6404 10.7763V29.1974H37.0088L31.7456 23.9342V29.1974H10.693V10.7763H31.7456V16.0395L37.0088 10.7763H39.6404ZM31.7456 19.7605V20.2132L37.0088 25.4763V14.4974L31.7456 19.7605ZM13.3246 13.4079V26.5658H29.1141V13.4079H13.3246Z" fill="black"/>
</svg>
