<svg width="51" height="51" viewBox="0 0 51 51" fill="none" xmlns="http://www.w3.org/2000/svg">
<path d="M9.07353 0.333374H41.4265C43.7666 0.333374 46.0109 1.26299 47.6656 2.91773C49.3204 4.57246 50.25 6.81676 50.25 9.1569V41.5098C50.25 43.85 49.3204 46.0943 47.6656 47.749C46.0109 49.4038 43.7666 50.3334 41.4265 50.3334H9.07353C6.73338 50.3334 4.48908 49.4038 2.83435 47.749C1.17962 46.0943 0.25 43.85 0.25 41.5098V9.1569C0.25 6.81676 1.17962 4.57246 2.83435 2.91773C4.48908 1.26299 6.73338 0.333374 9.07353 0.333374V0.333374ZM9.07353 3.27455C7.51343 3.27455 6.01723 3.8943 4.91408 4.99745C3.81092 6.10061 3.19118 7.59681 3.19118 9.1569V32.6863H17.8971V34.1569C17.8971 36.107 18.6717 37.9773 20.0507 39.3562C21.4296 40.7352 23.2999 41.5098 25.25 41.5098C27.2001 41.5098 29.0704 40.7352 30.4493 39.3562C31.8283 37.9773 32.6029 36.107 32.6029 34.1569V32.6863H47.3088V9.1569C47.3088 7.59681 46.6891 6.10061 45.5859 4.99745C44.4828 3.8943 42.9866 3.27455 41.4265 3.27455H9.07353ZM3.19118 41.5098C3.19118 43.0699 3.81092 44.5661 4.91408 45.6693C6.01723 46.7724 7.51343 47.3922 9.07353 47.3922H41.4265C42.9866 47.3922 44.4828 46.7724 45.5859 45.6693C46.6891 44.5661 47.3088 43.0699 47.3088 41.5098V35.6275H35.4412C35.087 38.0778 33.8619 40.3185 31.9903 41.9391C30.1186 43.5597 27.7258 44.4517 25.25 44.4517C22.7742 44.4517 20.3814 43.5597 18.5097 41.9391C16.6381 40.3185 15.413 38.0778 15.0588 35.6275H3.19118V41.5098Z" fill="black"/>
</svg>
