<svg width="51" height="51" viewBox="0 0 51 51" fill="none" xmlns="http://www.w3.org/2000/svg">
<path d="M8.06139 0.25H42.2719C44.3657 0.25 46.3738 1.08176 47.8543 2.56232C49.3349 4.04287 50.1667 6.05092 50.1667 8.14474V42.3553C50.1667 44.4491 49.3349 46.4571 47.8543 47.9377C46.3738 49.4182 44.3657 50.25 42.2719 50.25H8.06139C5.96758 50.25 3.95952 49.4182 2.47897 47.9377C0.998421 46.4571 0.166656 44.4491 0.166656 42.3553V8.14474C0.166656 6.05092 0.998421 4.04287 2.47897 2.56232C3.95952 1.08176 5.96758 0.25 8.06139 0.25V0.25ZM8.06139 2.88158C6.66552 2.88158 5.32681 3.43609 4.33978 4.42312C3.35274 5.41016 2.79824 6.74886 2.79824 8.14474V38.6342L14.0956 27.3368L20.6746 33.9158L33.8324 20.7579L47.5351 34.4605V8.14474C47.5351 6.74886 46.9806 5.41016 45.9935 4.42312C45.0065 3.43609 43.6678 2.88158 42.2719 2.88158H8.06139ZM20.6746 37.6368L14.0956 31.0579L2.79824 42.3553C2.79824 43.7511 3.35274 45.0898 4.33978 46.0769C5.32681 47.0639 6.66552 47.6184 8.06139 47.6184H42.2719C43.6678 47.6184 45.0065 47.0639 45.9935 46.0769C46.9806 45.0898 47.5351 43.7511 47.5351 42.3553V38.1816L33.8324 24.4789L20.6746 37.6368ZM14.6403 8.14474C16.3852 8.14474 18.0586 8.83787 19.2924 10.0717C20.5262 11.3055 21.2193 12.9788 21.2193 14.7237C21.2193 16.4685 20.5262 18.1419 19.2924 19.3757C18.0586 20.6095 16.3852 21.3026 14.6403 21.3026C12.8955 21.3026 11.2221 20.6095 9.98832 19.3757C8.75453 18.1419 8.06139 16.4685 8.06139 14.7237C8.06139 12.9788 8.75453 11.3055 9.98832 10.0717C11.2221 8.83787 12.8955 8.14474 14.6403 8.14474V8.14474ZM14.6403 10.7763C13.5934 10.7763 12.5894 11.1922 11.8491 11.9325C11.1089 12.6727 10.693 13.6768 10.693 14.7237C10.693 15.7706 11.1089 16.7746 11.8491 17.5149C12.5894 18.2552 13.5934 18.6711 14.6403 18.6711C15.6872 18.6711 16.6913 18.2552 17.4316 17.5149C18.1718 16.7746 18.5877 15.7706 18.5877 14.7237C18.5877 13.6768 18.1718 12.6727 17.4316 11.9325C16.6913 11.1922 15.6872 10.7763 14.6403 10.7763V10.7763Z" fill="black"/>
</svg>
