<svg width="51" height="51" viewBox="0 0 51 51" fill="none" xmlns="http://www.w3.org/2000/svg">
<path d="M13.3246 50.25C13.3246 47.4582 14.4336 44.7808 16.4077 42.8068C18.3817 40.8327 21.0591 39.7237 23.8509 39.7237V37.0921C20.8179 37.0917 17.878 36.044 15.5284 34.1259C13.1789 32.2079 11.5637 29.5373 10.9562 26.5658H8.06142C5.96761 26.5658 3.95955 25.734 2.479 24.2535C0.998452 22.7729 0.166687 20.7649 0.166687 18.6711V5.51316H5.42984C7.4509 5.51316 9.29827 6.27368 10.693 7.52368V0.25H39.6404V7.52368C41.0863 6.22663 42.9611 5.51048 44.9035 5.51316H50.1667V18.6711C50.1667 20.7649 49.3349 22.7729 47.8544 24.2535C46.3738 25.734 44.3658 26.5658 42.2719 26.5658H39.3772C38.7696 29.5373 37.1545 32.2079 34.8049 34.1259C32.4554 36.044 29.5155 37.0917 26.4825 37.0921V39.7237C29.2742 39.7237 31.9516 40.8327 33.9257 42.8068C35.8998 44.7808 37.0088 47.4582 37.0088 50.25H13.3246ZM26.4825 42.3553H23.8509C22.2177 42.3548 20.6245 42.8607 19.2908 43.8033C17.957 44.7458 16.9483 46.0787 16.4035 47.6184H33.9298C33.3851 46.0787 32.3764 44.7458 31.0426 43.8033C29.7089 42.8607 28.1157 42.3548 26.4825 42.3553ZM37.0088 2.88158H13.3246V23.9342C13.3246 26.726 14.4336 29.4034 16.4077 31.3774C18.3817 33.3515 21.0591 34.4605 23.8509 34.4605H26.4825C29.2742 34.4605 31.9516 33.3515 33.9257 31.3774C35.8998 29.4034 37.0088 26.726 37.0088 23.9342V2.88158ZM47.5351 18.6711V8.14474H44.9035C43.5077 8.14474 42.1689 8.69925 41.1819 9.68628C40.1949 10.6733 39.6404 12.012 39.6404 13.4079V23.9342H42.2719C43.6678 23.9342 45.0065 23.3797 45.9936 22.3927C46.9806 21.4056 47.5351 20.0669 47.5351 18.6711ZM2.79827 18.6711C2.79827 20.0669 3.35278 21.4056 4.33981 22.3927C5.32684 23.3797 6.66555 23.9342 8.06142 23.9342H10.693V13.4079C10.693 12.012 10.1385 10.6733 9.15146 9.68628C8.16443 8.69925 6.82572 8.14474 5.42984 8.14474H2.79827V18.6711Z" fill="black"/>
</svg>
