<svg width="60" height="60" viewBox="0 0 60 60" fill="none" xmlns="http://www.w3.org/2000/svg">
<path d="M49.1212 10.3334L47 12.4546M2.45456 29.7273H5.48486H2.45456ZM29.7273 2.45459V5.48489V2.45459ZM53.9697 29.7273H57H53.9697ZM10.3333 10.3334L12.4546 12.4546L10.3333 10.3334Z" stroke="#E25B0E" stroke-width="4.16667" stroke-linecap="round" stroke-linejoin="round"/>
<path d="M20.6364 41.8485C18.0924 39.9405 16.2131 37.2804 15.265 34.245C14.3168 31.2096 14.3477 27.9528 15.3533 24.936C16.3589 21.9191 18.2883 19.2952 20.868 17.4358C23.4478 15.5764 26.5473 14.5758 29.7273 14.5758C32.9073 14.5758 36.0068 15.5764 38.5865 17.4358C41.1663 19.2952 43.0957 21.9191 44.1013 24.936C45.1069 27.9528 45.1378 31.2096 44.1896 34.245C43.2414 37.2804 41.3622 39.9405 38.8182 41.8485C37.6351 43.0197 36.7442 44.4529 36.2178 46.0322C35.6914 47.6116 35.5441 49.2926 35.7879 50.9394C35.7879 52.5468 35.1494 54.0883 34.0128 55.2249C32.8762 56.3615 31.3347 57 29.7273 57C28.1199 57 26.5784 56.3615 25.4418 55.2249C24.3052 54.0883 23.6667 52.5468 23.6667 50.9394C23.9105 49.2926 23.7632 47.6116 23.2368 46.0322C22.7103 44.4529 21.8195 43.0197 20.6364 41.8485" stroke="black" stroke-width="4.16667" stroke-linecap="round" stroke-linejoin="round"/>
<path d="M22.7576 44.8788H36.697" stroke="black" stroke-width="4.16667" stroke-linecap="round" stroke-linejoin="round"/>
</svg>
