<svg width="60" height="60" viewBox="0 0 60 60" fill="none" xmlns="http://www.w3.org/2000/svg">
<path d="M30 57.2728C45.0623 57.2728 57.2727 45.0623 57.2727 30C57.2727 14.9377 45.0623 2.72729 30 2.72729C14.9377 2.72729 2.72726 14.9377 2.72726 30C2.72726 45.0623 14.9377 57.2728 30 57.2728Z" stroke="black" stroke-width="4.16667" stroke-linecap="round" stroke-linejoin="round"/>
<path d="M39.0909 39.0909L49.2424 49.2425" stroke="black" stroke-width="4.16667" stroke-linecap="round" stroke-linejoin="round"/>
<path d="M20.9091 39.0909L10.7576 49.2425" stroke="black" stroke-width="4.16667" stroke-linecap="round" stroke-linejoin="round"/>
<path d="M10.7576 10.7577L20.9091 20.9092" stroke="black" stroke-width="4.16667" stroke-linecap="round" stroke-linejoin="round"/>
<path d="M49.2424 10.7577L39.0909 20.9092" stroke="black" stroke-width="4.16667" stroke-linecap="round" stroke-linejoin="round"/>
<path d="M30 42.1212C36.6944 42.1212 42.1212 36.6944 42.1212 30C42.1212 23.3056 36.6944 17.8788 30 17.8788C23.3056 17.8788 17.8788 23.3056 17.8788 30C17.8788 36.6944 23.3056 42.1212 30 42.1212Z" stroke="#E85909" stroke-width="4.16667" stroke-linecap="round" stroke-linejoin="round"/>
</svg>
