<svg width="60" height="60" viewBox="0 0 60 60" fill="none" xmlns="http://www.w3.org/2000/svg">
<path d="M32.6946 20.9678H27.3053C25.4679 20.9678 23.9785 22.4573 23.9785 24.2947V53.7699C23.9785 55.6073 25.4679 57.0968 27.3053 57.0968H32.6946C34.532 57.0968 36.0215 55.6073 36.0215 53.7699V24.2947C36.0215 22.4573 34.532 20.9678 32.6946 20.9678Z" stroke="#E85909" stroke-width="4.16667" stroke-linecap="round" stroke-linejoin="round"/>
<path d="M53.7699 2.9032H48.3807C46.5433 2.9032 45.0538 4.39269 45.0538 6.23008V53.7699C45.0538 55.6073 46.5433 57.0967 48.3807 57.0967H53.7699C55.6073 57.0967 57.0968 55.6073 57.0968 53.7699V6.23008C57.0968 4.39269 55.6073 2.9032 53.7699 2.9032Z" stroke="black" stroke-width="4.16667" stroke-linecap="round" stroke-linejoin="round"/>
<path d="M8.9247 57.0967C12.2503 57.0967 14.9462 54.4008 14.9462 51.0752C14.9462 47.7496 12.2503 45.0537 8.9247 45.0537C5.59912 45.0537 2.9032 47.7496 2.9032 51.0752C2.9032 54.4008 5.59912 57.0967 8.9247 57.0967Z" stroke="black" stroke-width="4.16667" stroke-linecap="round" stroke-linejoin="round"/>
</svg>
